<?xml version="1.0" encoding="utf-8"?>
<!-- Generator: Adobe Illustrator 22.1.0, SVG Export Plug-In . SVG Version: 6.00 Build 0)  -->
<svg version="1.1" id="Layer_1" xmlns="http://www.w3.org/2000/svg" xmlns:xlink="http://www.w3.org/1999/xlink" x="0px" y="0px"
	 viewBox="0 0 103 111" style="enable-background:new 0 0 103 111;" xml:space="preserve">
<style type="text/css">
	.st0{fill:#C49F4F;}
	.st1{enable-background:new    ;}
	.st2{fill:#FFFFFF;}
</style>
<title>Group 2</title>
<desc>Created with Sketch.</desc>
<g id="Oval-2-Copy">
	<circle class="st0" cx="55.5" cy="55.5" r="55.5"/>
</g>
<g class="st1">
	<g>
		<path class="st2" d="M24.6,19.2v-3.9h16.9v3.9h-5.9v17.4h-5.2V19.2H24.6z"/>
	</g>
	<g>
		<path class="st2" d="M46.5,33.7c-2.2-2.1-3.2-4.7-3.2-7.8s1.1-5.8,3.2-7.8c2.1-2.1,4.7-3,7.8-3s5.7,1,7.7,3
			c2.1,2.1,3.2,4.7,3.2,7.8s-1.1,5.8-3.2,7.8s-4.7,3.2-7.7,3.2C51.3,36.9,48.7,35.8,46.5,33.7z M58.5,30.3c1-1.1,1.5-2.6,1.5-4.5
			s-0.5-3.4-1.5-4.5s-2.4-1.6-4.1-1.6c-1.7,0-3,0.5-4.1,1.6c-1.1,1.1-1.5,2.6-1.5,4.5s0.5,3.4,1.5,4.5c1,1.1,2.4,1.6,4.1,1.6
			C56,32,57.4,31.4,58.5,30.3z"/>
	</g>
	<g>
		<path class="st2" d="M84.9,21.7c0,1.4-0.5,2.8-1.5,4.1c-0.5,0.7-1.4,1.3-2.5,1.7c-1.1,0.4-2.4,0.7-3.8,0.7h-3.3v8.3h-5.2V15.2h8.5
			c2.5,0,4.5,0.7,5.8,2C84.2,18.5,84.9,20,84.9,21.7z M73.8,24.4h3.3c0.8,0,1.4-0.2,1.8-0.7c0.4-0.4,0.7-1.1,0.7-1.8
			s-0.2-1.4-0.7-1.8c-0.4-0.4-1.1-0.8-1.8-0.8h-3.3V24.4z"/>
	</g>
</g>
<g class="st1">
	<g>
		<path class="st2" d="M17.4,40.8c2,0,3.6,0.5,4.8,1.7c1.3,1.1,1.8,2.6,1.8,4.4c0,1.8-0.7,3.3-1.8,4.5c-1.3,1.1-2.8,1.7-4.8,1.7H13
			V40.8H17.4z M16,50.7h1.3c1.1,0,2.1-0.3,2.7-1.1c0.7-0.7,1-1.6,1-2.8s-0.3-2.1-1-2.8c-0.7-0.7-1.5-1.1-2.7-1.1H16V50.7z"/>
	</g>
	<g>
		<path class="st2" d="M33.3,40.7V43h-4.5v2.6h3.9v2.3h-3.9v2.8h4.5V53h-7.4V40.7H33.3z"/>
	</g>
	<g>
		<path class="st2" d="M43.8,40.7h2.9V53h-2.9l-5-7.7V53h-2.9V40.7h2.9l5,7.7V40.7z"/>
	</g>
	<g>
		<path class="st2" d="M48.6,43.1v-2.3h9.7v2.3h-3.4v10H52v-10H48.6z"/>
	</g>
	<g>
		<path class="st2" d="M60,53V40.8H63V53H60z"/>
	</g>
	<g>
		<path class="st2" d="M69.7,43c-0.3,0-0.7,0.1-0.9,0.3c-0.2,0.2-0.3,0.4-0.3,0.9c0,0.3,0.1,0.7,0.3,0.9c0.2,0.2,0.5,0.4,0.9,0.5
			c0.3,0.1,0.8,0.2,1.2,0.3c0.4,0.1,0.9,0.2,1.3,0.4c0.4,0.1,0.9,0.3,1.2,0.5c0.3,0.2,0.7,0.5,0.9,1c0.2,0.4,0.3,1,0.3,1.5
			c0,1-0.4,2-1.3,2.6c-0.9,0.8-2,1.1-3.4,1.1c-1.4,0-2.5-0.3-3.4-1c-0.9-0.7-1.3-1.6-1.3-2.8h3.2c0.1,1,0.5,1.4,1.5,1.4
			c0.4,0,0.8-0.1,1-0.3c0.2-0.2,0.3-0.5,0.3-0.9s-0.1-0.7-0.3-0.9c-0.2-0.2-0.5-0.4-0.9-0.5c-0.3-0.1-0.8-0.2-1.2-0.3
			c-0.4-0.1-0.9-0.2-1.3-0.4c-0.4-0.2-0.9-0.3-1.2-0.5c-0.3-0.2-0.7-0.5-0.9-1s-0.3-1-0.3-1.5c0-1.1,0.4-2.1,1.3-2.7
			c0.9-0.7,2-1,3.3-1s2.4,0.3,3.2,0.9c0.8,0.5,1.2,1.5,1.3,2.8h-3.3c0-0.4-0.2-0.8-0.4-1C70.4,43.1,70,43,69.7,43z"/>
	</g>
	<g>
		<path class="st2" d="M76,43.1v-2.3h9.7v2.3h-3.4v10h-2.9v-10H76z"/>
	</g>
	<g>
		<path class="st2" d="M91.6,43c-0.3,0-0.7,0.1-0.9,0.3c-0.2,0.2-0.3,0.4-0.3,0.9c0,0.3,0.1,0.7,0.3,0.9c0.2,0.2,0.5,0.4,0.9,0.5
			c0.3,0.1,0.8,0.2,1.2,0.3c0.4,0.1,0.9,0.2,1.3,0.4c0.4,0.1,0.9,0.3,1.2,0.5c0.3,0.2,0.7,0.5,0.9,1c0.2,0.4,0.3,1,0.3,1.5
			c0,1-0.4,2-1.3,2.6c-0.9,0.8-2,1.1-3.4,1.1s-2.5-0.3-3.4-1c-0.9-0.7-1.3-1.6-1.3-2.8h3.2c0.1,1,0.5,1.4,1.5,1.4
			c0.4,0,0.8-0.1,1-0.3c0.2-0.2,0.3-0.5,0.3-0.9s-0.1-0.7-0.3-0.9c-0.2-0.2-0.5-0.4-0.9-0.5c-0.3-0.1-0.8-0.2-1.2-0.3
			c-0.4-0.1-0.9-0.2-1.3-0.4c-0.4-0.1-0.9-0.3-1.2-0.5c-0.3-0.2-0.7-0.5-0.9-1c-0.2-0.4-0.3-1-0.3-1.5c0-1.1,0.4-2.1,1.3-2.7
			c0.9-0.7,2-1,3.3-1s2.4,0.3,3.2,0.9c0.8,0.5,1.2,1.5,1.3,2.8h-3.3c0-0.4-0.2-0.8-0.4-1C92.2,43.1,91.9,43,91.6,43z"/>
	</g>
</g>
<g class="st1">
	<g>
		<path class="st2" d="M35.6,70.4v-2.2c0.3-0.3,0.8-0.7,1.3-1.2s1-0.9,1.3-1.1c0.3-0.2,0.7-0.7,1.1-1c0.4-0.4,0.8-0.8,1-1.1
			c0.5-0.8,0.9-1.4,0.9-2c0-1-0.4-1.5-1.3-1.5c-0.4,0-0.8,0.1-1,0.4c-0.2,0.3-0.3,0.8-0.3,1.3h-2.8c0-1.4,0.4-2.4,1.2-3.2
			c0.8-0.8,1.8-1.1,3.2-1.1c1.3,0,2.3,0.3,3,1.1c0.8,0.8,1.1,1.6,1.1,2.7c0,0.8-0.2,1.5-0.5,2.1c-0.2,0.3-0.4,0.7-0.5,0.9
			c-0.1,0.2-0.4,0.5-0.8,0.9c-0.3,0.3-0.7,0.7-0.8,0.8c-0.1,0.2-0.4,0.4-0.9,0.9s-0.8,0.7-0.9,0.8h4.6v2.4h-8.8V70.4z"/>
	</g>
	<g>
		<path class="st2" d="M48.2,58.4c0.7-0.3,1.4-0.4,2.3-0.4s1.6,0.1,2.3,0.4c0.7,0.3,1.2,0.8,1.5,1.3c0.3,0.5,0.7,1.2,0.9,2
			c0.2,0.8,0.2,1.5,0.2,2.5s-0.1,1.7-0.2,2.5c-0.2,0.8-0.4,1.4-0.9,2c-0.3,0.5-0.9,1-1.5,1.3c-0.7,0.3-1.4,0.4-2.3,0.4
			s-1.6-0.1-2.3-0.4c-0.7-0.3-1.2-0.8-1.5-1.3c-0.3-0.5-0.7-1.2-0.9-2c-0.2-0.8-0.2-1.5-0.2-2.5s0.1-1.7,0.2-2.5
			c0.2-0.8,0.4-1.4,0.9-2C47.1,59.2,47.6,58.7,48.2,58.4z M51.5,60.9c-0.2-0.1-0.5-0.2-0.9-0.2s-0.7,0.1-0.9,0.2
			c-0.2,0.1-0.4,0.3-0.5,0.5c-0.1,0.2-0.2,0.4-0.3,0.8c-0.1,0.3-0.1,0.7-0.1,1s0,0.7,0,1.1c0,0.4,0,0.8,0,1.1s0.1,0.7,0.1,1
			c0,0.3,0.2,0.5,0.3,0.8c0.1,0.2,0.3,0.3,0.5,0.5c0.2,0.1,0.5,0.2,0.9,0.2s0.7-0.1,0.9-0.2c0.2-0.1,0.4-0.3,0.5-0.5
			s0.2-0.4,0.3-0.8c0.1-0.3,0.1-0.7,0.1-1s0-0.7,0-1.1c0-0.4,0-0.8,0-1.1c0-0.3-0.1-0.7-0.1-1c-0.1-0.3-0.2-0.5-0.3-0.8
			C51.9,61.2,51.7,61.1,51.5,60.9z"/>
	</g>
	<g>
		<path class="st2" d="M58.8,70.6V61h-2.1v-2.7h5.2v12.4h-3.2V70.6z"/>
	</g>
	<g>
		<path class="st2" d="M64.8,60.9c0-1,0.4-1.7,1.2-2.5c0.8-0.7,1.8-1,3.3-1c1.4,0,2.5,0.3,3.3,1.1c0.8,0.7,1.1,1.5,1.1,2.5
			c0,1.2-0.5,2.1-1.6,2.7c1.3,0.7,2,1.6,2,3.2c0,1.2-0.4,2.2-1.3,2.9c-0.9,0.8-2,1.1-3.4,1.1c-1.3,0-2.5-0.3-3.4-1.1
			c-0.9-0.8-1.3-1.7-1.3-2.9c0-1.5,0.7-2.5,2-3.2C65.3,63.1,64.8,62.2,64.8,60.9z M70.9,66.7c0-0.5-0.1-0.9-0.4-1.2
			c-0.3-0.3-0.8-0.4-1.3-0.4s-1,0.1-1.3,0.4c-0.3,0.3-0.5,0.8-0.5,1.2s0.1,1,0.4,1.3s0.8,0.4,1.3,0.4s1-0.2,1.3-0.5
			C70.8,67.6,70.9,67.1,70.9,66.7z M70.8,61.4c0-0.4-0.1-0.8-0.4-1.1c-0.3-0.3-0.7-0.4-1.1-0.4c-0.4,0-0.8,0.1-1.1,0.4
			c-0.3,0.2-0.4,0.7-0.4,1.1c0,0.4,0.1,0.9,0.4,1.1c0.3,0.3,0.7,0.4,1.1,0.4c0.4,0,0.8-0.1,1.1-0.4C70.5,62.2,70.8,61.9,70.8,61.4z"
			/>
	</g>
</g>
<g>
	<g>
		<path class="st2" d="M26,82.6h2.8c0.8,0,1.3,0.1,1.7,0.5c0.4,0.4,0.7,0.8,0.7,1.5c0,0.8-0.5,1.3-1.5,1.6c0.5,0.1,0.9,0.3,1.2,0.7
			c0.3,0.4,0.4,0.8,0.4,1.2c0,0.5-0.3,1.1-0.7,1.5s-1.1,0.5-1.7,0.5H26C26,90.1,26,82.6,26,82.6z M27.2,83.7v2.1h1.5
			c0.4,0,0.7-0.1,0.9-0.3c0.3-0.1,0.4-0.4,0.4-0.8c0-0.4-0.1-0.7-0.4-0.8c-0.3-0.1-0.5-0.3-0.9-0.3C28.6,83.7,27.2,83.7,27.2,83.7z
			 M27.2,89.2h1.6c0.4,0,0.8-0.1,0.9-0.3c0.3-0.3,0.4-0.5,0.4-0.8s-0.1-0.7-0.4-0.9c-0.3-0.3-0.5-0.3-0.9-0.3h-1.6V89.2z"/>
		<path class="st2" d="M35.8,90.1h-1.2v-2.7l-2.4-4.7h1.3l1.7,3.6l1.7-3.6h1.3L36,87.4v2.7H35.8z"/>
	</g>
	<path class="st2" d="M44.4,82.8h2.8c0.8,0,1.3,0.3,1.7,0.5c0.4,0.4,0.7,0.8,0.7,1.5c0,0.8-0.5,1.3-1.5,1.6c0.5,0.1,0.9,0.3,1.2,0.7
		s0.4,0.8,0.4,1.2c0,0.5-0.3,1.1-0.7,1.3c-0.4,0.4-1.1,0.5-1.7,0.5h-2.9V82.8z M45.6,89.3h1.6c0.4,0,0.8-0.1,0.9-0.3
		c0.3-0.3,0.4-0.5,0.4-0.8c0-0.4-0.1-0.7-0.4-0.9c-0.3-0.3-0.5-0.3-0.9-0.4h-1.6V89.3z M45.6,83.9V86H47c0.4,0,0.7-0.1,0.9-0.3
		c0.3-0.1,0.4-0.4,0.4-0.8c0-0.4-0.1-0.7-0.3-0.8c-0.3-0.1-0.5-0.3-0.9-0.3L45.6,83.9z"/>
	<path class="st2" d="M54.4,90.4c-1.1,0-2-0.4-2.7-1.1c-0.7-0.7-1.1-1.6-1.1-2.8c0-1.1,0.4-2,1.1-2.7c0.8-0.7,1.6-1.1,2.7-1.1
		s2,0.4,2.7,1.1c0.7,0.7,1.1,1.6,1.1,2.7s-0.4,2-1.1,2.7C56.3,90.1,55.4,90.5,54.4,90.4z M54.4,89.3c0.8,0,1.3-0.3,1.9-0.7
		c0.5-0.5,0.7-1.2,0.7-2s-0.3-1.5-0.7-2c-0.5-0.5-1.1-0.8-1.9-0.8c-0.8,0-1.3,0.3-1.9,0.7c-0.5,0.5-0.7,1.1-0.7,2
		c0,0.8,0.3,1.5,0.7,2C53,89.1,53.7,89.3,54.4,89.3z"/>
	<path class="st2" d="M61.5,83.8c-0.4,0-0.7,0.1-0.9,0.3c-0.3,0.1-0.4,0.4-0.4,0.8s0.1,0.7,0.4,0.8c0.3,0.1,0.5,0.3,0.9,0.4
		c0.4,0.1,0.8,0.1,1.2,0.3c0.4,0.1,0.7,0.3,0.9,0.7c0.3,0.3,0.4,0.7,0.4,1.3c0,0.5-0.3,1.1-0.7,1.5c-0.5,0.4-1.1,0.7-1.9,0.7
		s-1.5-0.1-1.9-0.5c-0.5-0.4-0.7-0.9-0.7-1.5h1.3c0,0.3,0.1,0.5,0.4,0.8c0.3,0.1,0.5,0.3,0.9,0.3s0.8-0.1,0.9-0.3
		c0.1-0.1,0.4-0.4,0.4-0.8c0-0.4,0-0.5-0.3-0.7c-0.1-0.4-0.3-0.5-0.5-0.5c-0.3-0.1-0.5-0.1-0.8-0.3s-0.5-0.1-0.8-0.3
		c-0.3-0.1-0.5-0.3-0.8-0.4c-0.3-0.1-0.4-0.4-0.5-0.5c-0.1-0.3-0.3-0.5-0.3-0.9c0-0.7,0.3-1.2,0.7-1.6c0.5-0.4,1.1-0.5,1.9-0.5
		c0.8,0,1.3,0.1,1.7,0.5s0.7,0.8,0.7,1.5h-1.3c0-0.3-0.1-0.5-0.4-0.7C62.1,83.8,61.9,83.8,61.5,83.8z"/>
	<path class="st2" d="M64.8,84v-0.9H70V84h-2l-0.1,6.4h-1.2l0.1-6.4H64.8z"/>
	<path class="st2" d="M74,90.4c-1.1,0-2-0.4-2.7-1.1c-0.7-0.7-1.1-1.6-1.1-2.7c0-1.1,0.4-2,1.1-2.7C72.2,83.4,73,83,74,83
		c1.1,0,2,0.4,2.7,1.1c0.7,0.7,1.1,1.6,1.1,2.7c0,1.1-0.4,2-1.1,2.7C76,90.2,75.1,90.4,74,90.4z M74,89.4c0.8,0,1.3-0.3,1.9-0.7
		c0.5-0.5,0.7-1.2,0.7-2s-0.3-1.5-0.7-2s-1.1-0.8-1.9-0.8c-0.8,0-1.3,0.3-1.9,0.7c-0.5,0.5-0.7,1.1-0.7,2s0.3,1.5,0.7,2
		C72.7,89.1,73.4,89.4,74,89.4z"/>
	<path class="st2" d="M83.8,82.9H85l-0.1,7.5h-1.2L80,84.7l-0.1,5.6h-1.2l0.1-7.5H80l3.6,5.6L83.8,82.9z"/>
</g>
<g class="st1">
	<path class="st2" d="M36.7,93.1v7.5h-1.2v-5.1l-2.3,5.1h-0.8l-2.3-5.1v5.1H29v-7.5h1.3L33,99l2.5-5.9H36.7z"/>
	<path class="st2" d="M43.4,100.6l-0.5-1.5h-3.1l-0.7,1.5h-1.3l2.7-7.5h1.5l2.7,7.5H43.4z M40,98h2.4l-1.2-3.5L40,98z"/>
	<path class="st2" d="M49.1,100.6c-1.1,0-1.9-0.4-2.7-1.1c-0.8-0.7-1.1-1.6-1.1-2.7s0.4-2,1.1-2.7c0.7-0.7,1.6-1.1,2.7-1.1
		c0.8,0,1.5,0.1,2.1,0.5c0.7,0.4,1.1,0.9,1.3,1.6h-1.5c-0.4-0.8-1.1-1.1-2-1.1c-0.8,0-1.3,0.3-1.9,0.8s-0.7,1.2-0.7,2s0.3,1.5,0.7,2
		c0.5,0.5,1.1,0.8,1.7,0.8c0.7,0,1.2-0.1,1.7-0.5c0.4-0.4,0.7-0.9,0.8-1.5h-2.8v-0.9h4.1v0.9c-0.1,0.9-0.5,1.6-1.2,2.3
		C50.9,100.3,50,100.6,49.1,100.6z"/>
	<path class="st2" d="M58.9,100.6l-0.5-1.5h-3.1l-0.5,1.5h-1.3l2.7-7.5h1.5l2.7,7.5H58.9z M55.6,98H58l-1.2-3.5L55.6,98z"/>
	<path class="st2" d="M66,93.1v0.9l-3.5,5.5H66v1.1h-4.9v-0.9l3.5-5.5h-3.5v-0.9H66V93.1z"/>
	<path class="st2" d="M67.3,100.6v-7.5h1.2v7.5H67.3z"/>
	<path class="st2" d="M75,93.1h1.2v7.5H75L71.3,95v5.6h-1.2v-7.5h1.2l3.6,5.5v-5.5H75z"/>
	<path class="st2" d="M82,93.1v0.9H79v2.3h2.5v0.9H79v2.4H82v0.9h-4.1v-7.5H82z"/>
</g>
<g id="Path-7">
	<g>
		<rect x="8.5" y="77.2" class="st2" width="92.5" height="1.1"/>
	</g>
</g>
</svg>
