<?xml version="1.0" encoding="utf-8"?>
<!-- Generator: Adobe Illustrator 22.1.0, SVG Export Plug-In . SVG Version: 6.00 Build 0)  -->
<svg version="1.1" id="Layer_1" xmlns="http://www.w3.org/2000/svg" xmlns:xlink="http://www.w3.org/1999/xlink" x="0px" y="0px"
	 viewBox="0 0 103 111" style="enable-background:new 0 0 103 111;" xml:space="preserve">
<style type="text/css">
	.st0{fill:#C49F4F;}
	.st1{enable-background:new    ;}
	.st2{fill:#FFFFFF;}
</style>
<title>Group 2</title>
<desc>Created with Sketch.</desc>
<g id="Oval-2-Copy">
	<circle class="st0" cx="55.5" cy="55.5" r="55.5"/>
</g>
<g class="st1">
	<g>
		<path class="st2" d="M26.3,15.9v-3.6h15.5v3.6h-5.4v16h-4.8v-16H26.3z"/>
	</g>
	<g>
		<path class="st2" d="M46.4,29.2c-2-1.9-2.9-4.3-2.9-7.2s1-5.3,2.9-7.2s4.3-2.8,7.2-2.8s5.2,0.9,7.1,2.8s2.9,4.3,2.9,7.2
			s-1,5.3-2.9,7.2s-4.3,2.9-7.1,2.9C50.8,32.1,48.4,31.1,46.4,29.2z M57.4,26.1c0.9-1,1.4-2.4,1.4-4.1s-0.5-3.1-1.4-4.1
			c-0.9-1-2.2-1.5-3.8-1.5c-1.6,0-2.8,0.5-3.8,1.5s-1.4,2.4-1.4,4.1s0.5,3.1,1.4,4.1s2.2,1.5,3.8,1.5C55.1,27.6,56.4,27.1,57.4,26.1
			z"/>
	</g>
	<g>
		<path class="st2" d="M81.7,18.2c0,1.3-0.5,2.6-1.4,3.8c-0.5,0.6-1.3,1.2-2.3,1.6c-1,0.4-2.2,0.6-3.5,0.6h-3v7.6h-4.8V12.2h7.8
			c2.3,0,4.1,0.6,5.3,1.8C81.1,15.2,81.7,16.6,81.7,18.2z M71.5,20.6h3c0.7,0,1.3-0.2,1.7-0.6s0.6-1,0.6-1.7s-0.2-1.3-0.6-1.7
			c-0.4-0.4-1-0.7-1.7-0.7h-3V20.6z"/>
	</g>
</g>
<g class="st1">
	<g>
		<path class="st2" d="M19.7,35.7c1.8,0,3.3,0.5,4.4,1.6c1.2,1,1.7,2.4,1.7,4c0,1.7-0.6,3-1.7,4.1c-1.2,1-2.6,1.6-4.4,1.6h-4V35.7
			H19.7z M18.4,44.8h1.2c1,0,1.9-0.3,2.5-1c0.6-0.6,0.9-1.5,0.9-2.6c0-1.1-0.3-1.9-0.9-2.6c-0.6-0.6-1.4-1-2.5-1h-1.2V44.8z"/>
	</g>
	<g>
		<path class="st2" d="M34.3,35.6v2.1h-4.1v2.4h3.6v2.1h-3.6v2.6h4.1v2.1h-6.8V35.6H34.3z"/>
	</g>
	<g>
		<path class="st2" d="M44,35.6h2.7v11.3H44l-4.6-7.1v7.1h-2.7V35.6h2.7l4.6,7.1V35.6z"/>
	</g>
	<g>
		<path class="st2" d="M48.4,37.8v-2.1h8.9v2.1h-3.1v9.2h-2.7v-9.2H48.4z"/>
	</g>
	<g>
		<path class="st2" d="M58.9,46.9V35.7h2.7v11.2H58.9z"/>
	</g>
	<g>
		<path class="st2" d="M67.8,37.7c-0.3,0-0.6,0.1-0.8,0.3s-0.3,0.4-0.3,0.8c0,0.3,0.1,0.6,0.3,0.8s0.5,0.4,0.8,0.5s0.7,0.2,1.1,0.3
			s0.8,0.2,1.2,0.4c0.4,0.1,0.8,0.3,1.1,0.5c0.3,0.2,0.6,0.5,0.8,0.9c0.2,0.4,0.3,0.9,0.3,1.4c0,0.9-0.4,1.8-1.2,2.4
			c-0.8,0.7-1.8,1-3.1,1c-1.3,0-2.3-0.3-3.1-0.9c-0.8-0.6-1.2-1.5-1.2-2.6h2.9c0.1,0.9,0.5,1.3,1.4,1.3c0.4,0,0.7-0.1,0.9-0.3
			c0.2-0.2,0.3-0.5,0.3-0.8c0-0.3-0.1-0.6-0.3-0.8c-0.2-0.2-0.5-0.4-0.8-0.5c-0.3-0.1-0.7-0.2-1.1-0.3c-0.4-0.1-0.8-0.2-1.2-0.4
			s-0.8-0.3-1.1-0.5c-0.3-0.2-0.6-0.5-0.8-0.9c-0.2-0.4-0.3-0.9-0.3-1.4c0-1,0.4-1.9,1.2-2.5c0.8-0.6,1.8-0.9,3-0.9s2.2,0.3,2.9,0.8
			c0.7,0.5,1.1,1.4,1.2,2.6h-3c0-0.4-0.2-0.7-0.4-0.9C68.4,37.8,68.1,37.7,67.8,37.7z"/>
	</g>
	<g>
		<path class="st2" d="M73.6,37.8v-2.1h8.9v2.1h-3.1v9.2h-2.7v-9.2H73.6z"/>
	</g>
	<g>
		<path class="st2" d="M87.9,37.7c-0.3,0-0.6,0.1-0.8,0.3s-0.3,0.4-0.3,0.8c0,0.3,0.1,0.6,0.3,0.8c0.2,0.2,0.5,0.4,0.8,0.5
			c0.3,0.1,0.7,0.2,1.1,0.3c0.4,0.1,0.8,0.2,1.2,0.4c0.4,0.1,0.8,0.3,1.1,0.5c0.3,0.2,0.6,0.5,0.8,0.9c0.2,0.4,0.3,0.9,0.3,1.4
			c0,0.9-0.4,1.8-1.2,2.4c-0.8,0.7-1.8,1-3.1,1s-2.3-0.3-3.1-0.9c-0.8-0.6-1.2-1.5-1.2-2.6h2.9c0.1,0.9,0.5,1.3,1.4,1.3
			c0.4,0,0.7-0.1,0.9-0.3c0.2-0.2,0.3-0.5,0.3-0.8c0-0.3-0.1-0.6-0.3-0.8c-0.2-0.2-0.5-0.4-0.8-0.5c-0.3-0.1-0.7-0.2-1.1-0.3
			s-0.8-0.2-1.2-0.4c-0.4-0.1-0.8-0.3-1.1-0.5c-0.3-0.2-0.6-0.5-0.8-0.9s-0.3-0.9-0.3-1.4c0-1,0.4-1.9,1.2-2.5
			c0.8-0.6,1.8-0.9,3-0.9c1.2,0,2.2,0.3,2.9,0.8c0.7,0.5,1.1,1.4,1.2,2.6h-3c0-0.4-0.2-0.7-0.4-0.9C88.5,37.8,88.2,37.7,87.9,37.7z"
			/>
	</g>
</g>
<g class="st1">
	<g>
		<path class="st2" d="M36.4,62.9v-2c0.3-0.3,0.7-0.6,1.2-1.1s0.9-0.8,1.2-1s0.6-0.6,1-0.9c0.4-0.4,0.7-0.7,0.9-1
			c0.5-0.7,0.8-1.3,0.8-1.8c0-0.9-0.4-1.4-1.2-1.4c-0.4,0-0.7,0.1-0.9,0.4c-0.2,0.3-0.3,0.7-0.3,1.2h-2.6c0-1.3,0.4-2.2,1.1-2.9
			c0.7-0.7,1.7-1,2.9-1c1.2,0,2.1,0.3,2.8,1c0.7,0.7,1,1.5,1,2.5c0,0.7-0.2,1.4-0.5,1.9c-0.2,0.3-0.4,0.6-0.5,0.8
			c-0.1,0.2-0.4,0.5-0.7,0.8c-0.3,0.3-0.6,0.6-0.7,0.7c-0.1,0.2-0.4,0.4-0.8,0.8s-0.7,0.6-0.8,0.7h4.2v2.2H36.4z"/>
	</g>
	<g>
		<path class="st2" d="M48,51.9c0.6-0.3,1.3-0.4,2.1-0.4s1.5,0.1,2.1,0.4c0.6,0.3,1.1,0.7,1.4,1.2c0.3,0.5,0.6,1.1,0.8,1.8
			c0.2,0.7,0.2,1.4,0.2,2.3s-0.1,1.6-0.2,2.3c-0.2,0.7-0.4,1.3-0.8,1.8c-0.3,0.5-0.8,0.9-1.4,1.2c-0.6,0.3-1.3,0.4-2.1,0.4
			s-1.5-0.1-2.1-0.4c-0.6-0.3-1.1-0.7-1.4-1.2s-0.6-1.1-0.8-1.8c-0.2-0.7-0.2-1.4-0.2-2.3s0.1-1.6,0.2-2.3c0.2-0.7,0.4-1.3,0.8-1.8
			C47,52.6,47.4,52.2,48,51.9z M51,54.2c-0.2-0.1-0.5-0.2-0.8-0.2c-0.3,0-0.6,0.1-0.8,0.2c-0.2,0.1-0.4,0.3-0.5,0.5
			c-0.1,0.2-0.2,0.4-0.3,0.7s-0.1,0.6-0.1,0.9c0,0.3,0,0.6,0,1s0,0.7,0,1s0.1,0.6,0.1,0.9s0.2,0.5,0.3,0.7s0.3,0.3,0.5,0.5
			c0.2,0.1,0.5,0.2,0.8,0.2c0.3,0,0.6-0.1,0.8-0.2c0.2-0.1,0.4-0.3,0.5-0.5s0.2-0.4,0.3-0.7c0.1-0.3,0.1-0.6,0.1-0.9
			c0-0.3,0-0.6,0-1s0-0.7,0-1c0-0.3-0.1-0.6-0.1-0.9c-0.1-0.3-0.2-0.5-0.3-0.7C51.4,54.5,51.2,54.4,51,54.2z"/>
	</g>
	<g>
		<path class="st2" d="M57.7,63.1v-8.8h-1.9v-2.5h4.8v11.4H57.7z"/>
	</g>
	<g>
		<path class="st2" d="M63.2,54.2c0-0.9,0.4-1.6,1.1-2.3c0.7-0.6,1.7-0.9,3-0.9s2.3,0.3,3,1c0.7,0.6,1,1.4,1,2.3
			c0,1.1-0.5,1.9-1.5,2.5c1.2,0.6,1.8,1.5,1.8,2.9c0,1.1-0.4,2-1.2,2.7c-0.8,0.7-1.8,1-3.1,1c-1.2,0-2.3-0.3-3.1-1
			c-0.8-0.7-1.2-1.6-1.2-2.7c0-1.4,0.6-2.3,1.8-2.9C63.7,56.2,63.2,55.4,63.2,54.2z M68.8,59.5c0-0.5-0.1-0.8-0.4-1.1
			s-0.7-0.4-1.2-0.4s-0.9,0.1-1.2,0.4c-0.3,0.3-0.5,0.7-0.5,1.1s0.1,0.9,0.4,1.2c0.3,0.3,0.7,0.4,1.2,0.4c0.5,0,0.9-0.2,1.2-0.5
			C68.7,60.3,68.8,59.9,68.8,59.5z M68.7,54.6c0-0.4-0.1-0.7-0.4-1s-0.6-0.4-1-0.4c-0.4,0-0.7,0.1-1,0.4c-0.3,0.2-0.4,0.6-0.4,1
			c0,0.4,0.1,0.8,0.4,1c0.3,0.3,0.6,0.4,1,0.4s0.7-0.1,1-0.4C68.5,55.4,68.7,55.1,68.7,54.6z"/>
	</g>
</g>
<g class="st1">
	<path class="st2" d="M32.4,80.3L32,79.2h-2.3l-0.4,1.1h-1l2-5.6h1.1l2,5.6H32.4z M29.9,78.5h1.8l-0.9-2.6L29.9,78.5z"/>
	<path class="st2" d="M40.4,74.7h1l-1.6,5.6h-1l-1.2-4.2l-1.2,4.2l-1,0l-1.6-5.6h1l1.2,4.5l1.2-4.5h1l1.2,4.5L40.4,74.7z"/>
	<path class="st2" d="M45.9,80.3l-0.4-1.1h-2.3l-0.4,1.1h-1l2-5.6h1.1l2,5.6H45.9z M43.4,78.5h1.8l-0.9-2.6L43.4,78.5z"/>
	<path class="st2" d="M48.7,78v2.3h-0.9v-5.6h1.9c0.6,0,1.1,0.2,1.5,0.5c0.3,0.3,0.5,0.7,0.5,1.2c0,0.4-0.1,0.7-0.3,1
		c-0.2,0.3-0.6,0.5-1,0.6l1.5,2.3h-1.1L49.2,78H48.7z M48.7,75.5v1.9h1c0.3,0,0.6-0.1,0.8-0.2c0.2-0.2,0.3-0.4,0.3-0.7
		s-0.1-0.5-0.3-0.7c-0.2-0.2-0.4-0.2-0.8-0.2H48.7z"/>
	<path class="st2" d="M54.6,74.7c0.9,0,1.6,0.3,2.1,0.8s0.8,1.2,0.8,2c0,0.9-0.3,1.5-0.8,2s-1.3,0.7-2.1,0.7h-1.8v-5.6H54.6z
		 M53.7,79.6h0.9c0.6,0,1.1-0.2,1.5-0.6s0.5-0.9,0.5-1.5s-0.2-1.1-0.5-1.5c-0.3-0.4-0.8-0.5-1.5-0.5h-0.9V79.6z"/>
	<path class="st2" d="M61.5,74.7v0.7h-2.2v1.7h1.9v0.7h-1.9v1.8h2.2v0.7h-3.1v-5.6H61.5z"/>
	<path class="st2" d="M64.5,74.7c0.9,0,1.6,0.3,2.1,0.8c0.5,0.5,0.8,1.2,0.8,2c0,0.9-0.3,1.5-0.8,2c-0.5,0.5-1.3,0.7-2.1,0.7h-1.8
		v-5.6H64.5z M63.6,79.6h0.9c0.6,0,1.1-0.2,1.5-0.6c0.3-0.4,0.5-0.9,0.5-1.5S66.3,76.4,66,76c-0.3-0.4-0.8-0.5-1.5-0.5h-0.9V79.6z"
		/>
	<path class="st2" d="M70.7,74.7h2.1c0.6,0,1,0.1,1.3,0.4s0.5,0.6,0.5,1.1c0,0.6-0.4,1-1.1,1.2c0.4,0.1,0.7,0.2,0.9,0.5
		c0.2,0.3,0.3,0.6,0.3,0.9c0,0.4-0.2,0.8-0.5,1.1c-0.3,0.3-0.8,0.4-1.3,0.4h-2.2V74.7z M71.6,75.5v1.6h1.1c0.3,0,0.5-0.1,0.7-0.2
		s0.3-0.3,0.3-0.6c0-0.3-0.1-0.5-0.3-0.6s-0.4-0.2-0.7-0.2H71.6z M71.6,79.6h1.2c0.3,0,0.6-0.1,0.7-0.2c0.2-0.2,0.3-0.4,0.3-0.6
		s-0.1-0.5-0.3-0.7c-0.2-0.2-0.4-0.2-0.7-0.2h-1.2V79.6z"/>
	<path class="st2" d="M78.1,80.3h-0.9v-2l-1.8-3.5h1l1.3,2.7l1.3-2.7h1l-1.8,3.5V80.3z"/>
</g>
<g>
</g>
<g class="st1">
	<path class="st2" d="M38.3,83.5l2.1,0c0.6,0,1,0.2,1.3,0.4c0.3,0.3,0.5,0.6,0.5,1.1c0,0.6-0.4,1-1.1,1.2c0.4,0.1,0.7,0.2,0.9,0.5
		c0.2,0.3,0.3,0.6,0.3,0.9c0,0.4-0.2,0.8-0.5,1c-0.3,0.3-0.8,0.4-1.3,0.4l-2.2,0L38.3,83.5z M39.2,88.4l1.2,0c0.3,0,0.6-0.1,0.7-0.2
		c0.2-0.2,0.3-0.4,0.3-0.6c0-0.3-0.1-0.5-0.3-0.7s-0.4-0.2-0.7-0.3l-1.2,0L39.2,88.4z M39.2,84.3l0,1.6l1.1,0c0.3,0,0.5-0.1,0.7-0.2
		s0.3-0.3,0.3-0.6c0-0.3-0.1-0.5-0.2-0.6c-0.2-0.1-0.4-0.2-0.7-0.2L39.2,84.3z"/>
	<path class="st2" d="M45.8,89.2c-0.8,0-1.5-0.3-2-0.8c-0.5-0.5-0.8-1.2-0.8-2.1c0-0.8,0.3-1.5,0.8-2c0.6-0.5,1.2-0.8,2-0.8
		c0.8,0,1.5,0.3,2,0.8c0.5,0.5,0.8,1.2,0.8,2c0,0.8-0.3,1.5-0.8,2C47.3,89,46.6,89.3,45.8,89.2z M45.8,88.4c0.6,0,1-0.2,1.4-0.5
		c0.4-0.4,0.5-0.9,0.5-1.5c0-0.6-0.2-1.1-0.5-1.5c-0.4-0.4-0.8-0.6-1.4-0.6c-0.6,0-1,0.2-1.4,0.5c-0.4,0.4-0.5,0.8-0.5,1.5
		c0,0.6,0.2,1.1,0.5,1.5C44.8,88.2,45.3,88.4,45.8,88.4z"/>
	<path class="st2" d="M51.3,84.4c-0.3,0-0.5,0.1-0.7,0.2s-0.3,0.3-0.3,0.6c0,0.3,0.1,0.5,0.3,0.6c0.2,0.1,0.4,0.2,0.7,0.3
		c0.3,0.1,0.6,0.1,0.9,0.2c0.3,0.1,0.5,0.2,0.7,0.5c0.2,0.2,0.3,0.5,0.3,1c0,0.4-0.2,0.8-0.5,1.1c-0.4,0.3-0.8,0.5-1.4,0.5
		s-1.1-0.1-1.4-0.4c-0.4-0.3-0.5-0.7-0.5-1.1l1,0c0,0.2,0.1,0.4,0.3,0.6c0.2,0.1,0.4,0.2,0.7,0.2c0.3,0,0.6-0.1,0.7-0.2
		s0.3-0.3,0.3-0.6s0-0.4-0.2-0.5C52.1,87.1,52,87,51.8,87c-0.2-0.1-0.4-0.1-0.6-0.2s-0.4-0.1-0.6-0.2c-0.2-0.1-0.4-0.2-0.6-0.3
		c-0.2-0.1-0.3-0.3-0.4-0.4c-0.1-0.2-0.2-0.4-0.2-0.7c0-0.5,0.2-0.9,0.5-1.2c0.4-0.3,0.8-0.4,1.4-0.4c0.6,0,1,0.1,1.3,0.4
		c0.3,0.3,0.5,0.6,0.5,1.1l-1,0c0-0.2-0.1-0.4-0.3-0.5C51.8,84.4,51.6,84.4,51.3,84.4z"/>
	<path class="st2" d="M54.2,84.4l0-0.7l3.9,0l0,0.7l-1.5,0l-0.1,4.8l-0.9,0l0.1-4.8L54.2,84.4z"/>
	<path class="st2" d="M61.4,89.4c-0.8,0-1.5-0.3-2-0.8c-0.5-0.5-0.8-1.2-0.8-2c0-0.8,0.3-1.5,0.8-2c0.6-0.5,1.2-0.8,2-0.8
		s1.5,0.3,2,0.8s0.8,1.2,0.8,2c0,0.8-0.3,1.5-0.8,2C62.9,89.2,62.2,89.4,61.4,89.4z M61.4,88.6c0.6,0,1-0.2,1.4-0.5
		c0.4-0.4,0.5-0.9,0.5-1.5s-0.2-1.1-0.5-1.5c-0.3-0.4-0.8-0.6-1.4-0.6c-0.6,0-1,0.2-1.4,0.5c-0.4,0.4-0.5,0.8-0.5,1.5
		s0.2,1.1,0.5,1.5C60.4,88.4,60.9,88.6,61.4,88.6z"/>
	<path class="st2" d="M68.9,83.9l0.9,0l-0.1,5.6l-0.9,0l-2.7-4.2l-0.1,4.2l-0.9,0l0.1-5.6l0.9,0l2.7,4.2L68.9,83.9z"/>
</g>
<g class="st1">
	<path class="st2" d="M40,92.4V98h-0.9v-3.8L37.4,98h-0.6l-1.7-3.8V98h-0.9v-5.6h1l2,4.4l1.9-4.4H40z"/>
	<path class="st2" d="M45,98l-0.4-1.1h-2.3L41.8,98h-1l2-5.6h1.1l2,5.6H45z M42.5,96.1h1.8l-0.9-2.6L42.5,96.1z"/>
	<path class="st2" d="M49.3,98c-0.8,0-1.4-0.3-2-0.8s-0.8-1.2-0.8-2s0.3-1.5,0.8-2s1.2-0.8,2-0.8c0.6,0,1.1,0.1,1.6,0.4
		c0.5,0.3,0.8,0.7,1,1.2h-1.1c-0.3-0.6-0.8-0.8-1.5-0.8c-0.6,0-1,0.2-1.4,0.6c-0.4,0.4-0.5,0.9-0.5,1.5s0.2,1.1,0.5,1.5
		c0.4,0.4,0.8,0.6,1.3,0.6c0.5,0,0.9-0.1,1.3-0.4c0.3-0.3,0.5-0.7,0.6-1.1H49v-0.7h3.1v0.7c-0.1,0.7-0.4,1.2-0.9,1.7
		C50.7,97.8,50,98,49.3,98z"/>
	<path class="st2" d="M56.7,98l-0.4-1.1H54L53.6,98h-1l2-5.6h1.1l2,5.6H56.7z M54.2,96.1h1.8l-0.9-2.6L54.2,96.1z"/>
	<path class="st2" d="M62,92.4v0.7l-2.6,4.1H62V98h-3.7v-0.7l2.6-4.1h-2.6v-0.7H62z"/>
	<path class="st2" d="M63,98v-5.6h0.9V98H63z"/>
	<path class="st2" d="M68.8,92.4h0.9V98h-0.9L66,93.8V98h-0.9v-5.6H66l2.7,4.1V92.4z"/>
	<path class="st2" d="M74,92.4v0.7h-2.2v1.7h1.9v0.7h-1.9v1.8H74V98h-3.1v-5.6H74z"/>
</g>
<g id="Path-7">
	<g>
		<rect x="11.5" y="69.2" class="st2" width="85" height="1"/>
	</g>
</g>
</svg>
