<?xml version="1.0" encoding="utf-8"?>
<!-- Generator: Adobe Illustrator 22.1.0, SVG Export Plug-In . SVG Version: 6.00 Build 0)  -->
<svg version="1.1" id="Layer_1" xmlns="http://www.w3.org/2000/svg" xmlns:xlink="http://www.w3.org/1999/xlink" x="0px" y="0px"
	 viewBox="0 0 158 194.1" style="enable-background:new 0 0 158 194.1;" xml:space="preserve">
<style type="text/css">
	.st0{fill:#C49F4F;}
	.st1{enable-background:new    ;}
	.st2{fill:#FFFFFF;}
</style>
<g id="Oval-2-Copy">
	<ellipse class="st0" cx="79" cy="96.6" rx="76" ry="97.5"/>
</g>
<g>
	<g class="st1">
		<g>
			<path class="st2" d="M46.6,64.1v-3.9h16.9v3.9h-5.9v17.4h-5.2V64.1H46.6z"/>
		</g>
		<g>
			<path class="st2" d="M68.5,78.5c-2.2-2.1-3.2-4.7-3.2-7.8c0-3.2,1.1-5.8,3.2-7.8c2.1-2.1,4.7-3,7.8-3c3.2,0,5.7,1,7.7,3
				c2.1,2.1,3.2,4.7,3.2,7.8s-1.1,5.8-3.2,7.8c-2.1,2.1-4.7,3.2-7.7,3.2C73.3,81.7,70.7,80.6,68.5,78.5z M80.5,75.1
				c1-1.1,1.5-2.6,1.5-4.5s-0.5-3.4-1.5-4.5c-1-1.1-2.4-1.6-4.1-1.6c-1.7,0-3,0.5-4.1,1.6s-1.5,2.6-1.5,4.5s0.5,3.4,1.5,4.5
				c1,1.1,2.4,1.6,4.1,1.6C78,76.8,79.4,76.2,80.5,75.1z"/>
		</g>
		<g>
			<path class="st2" d="M106.9,66.6c0,1.4-0.5,2.8-1.5,4.1c-0.5,0.7-1.4,1.3-2.5,1.7c-1.1,0.4-2.4,0.7-3.8,0.7h-3.3v8.3h-5.2V60h8.5
				c2.5,0,4.5,0.7,5.8,2C106.3,63.3,106.9,64.8,106.9,66.6z M95.8,69.2h3.3c0.8,0,1.4-0.2,1.8-0.7c0.4-0.4,0.7-1.1,0.7-1.8
				s-0.2-1.4-0.7-1.8c-0.4-0.4-1.1-0.8-1.8-0.8h-3.3V69.2z"/>
		</g>
	</g>
	<g class="st1">
		<g>
			<path class="st2" d="M39.4,85.6c2,0,3.6,0.5,4.8,1.7c1.3,1.1,1.8,2.6,1.8,4.4c0,1.8-0.7,3.3-1.8,4.5c-1.3,1.1-2.8,1.7-4.8,1.7H35
				V85.6H39.4z M38,95.5h1.3c1.1,0,2.1-0.3,2.7-1.1c0.7-0.7,1-1.6,1-2.8s-0.3-2.1-1-2.8c-0.7-0.7-1.5-1.1-2.7-1.1H38V95.5z"/>
		</g>
		<g>
			<path class="st2" d="M55.3,85.5v2.3h-4.5v2.6h3.9v2.3h-3.9v2.8h4.5v2.3h-7.4V85.5H55.3z"/>
		</g>
		<g>
			<path class="st2" d="M65.8,85.5h2.9v12.3h-2.9l-5-7.7v7.7h-2.9V85.5h2.9l5,7.7V85.5z"/>
		</g>
		<g>
			<path class="st2" d="M70.6,87.9v-2.3h9.7v2.3h-3.4v10H74v-10H70.6z"/>
		</g>
		<g>
			<path class="st2" d="M82,97.8V85.6H85v12.2H82z"/>
		</g>
		<g>
			<path class="st2" d="M91.7,87.8c-0.3,0-0.7,0.1-0.9,0.3c-0.2,0.2-0.3,0.4-0.3,0.9c0,0.3,0.1,0.7,0.3,0.9s0.5,0.4,0.9,0.5
				c0.3,0.1,0.8,0.2,1.2,0.3c0.4,0.1,0.9,0.2,1.3,0.4c0.4,0.1,0.9,0.3,1.2,0.5c0.3,0.2,0.7,0.5,0.9,1c0.2,0.4,0.3,1,0.3,1.5
				c0,1-0.4,2-1.3,2.6c-0.9,0.8-2,1.1-3.4,1.1c-1.4,0-2.5-0.3-3.4-1c-0.9-0.7-1.3-1.6-1.3-2.8h3.2c0.1,1,0.5,1.4,1.5,1.4
				c0.4,0,0.8-0.1,1-0.3c0.2-0.2,0.3-0.5,0.3-0.9c0-0.3-0.1-0.7-0.3-0.9c-0.2-0.2-0.5-0.4-0.9-0.5c-0.3-0.1-0.8-0.2-1.2-0.3
				c-0.4-0.1-0.9-0.2-1.3-0.4c-0.4-0.2-0.9-0.3-1.2-0.5c-0.3-0.2-0.7-0.5-0.9-1c-0.2-0.4-0.3-1-0.3-1.5c0-1.1,0.4-2.1,1.3-2.7
				c0.9-0.7,2-1,3.3-1c1.3,0,2.4,0.3,3.2,0.9c0.8,0.5,1.2,1.5,1.3,2.8h-3.3c0-0.4-0.2-0.8-0.4-1C92.4,87.9,92.1,87.8,91.7,87.8z"/>
		</g>
		<g>
			<path class="st2" d="M98,87.9v-2.3h9.7v2.3h-3.4v10h-2.9v-10H98z"/>
		</g>
		<g>
			<path class="st2" d="M113.6,87.8c-0.3,0-0.7,0.1-0.9,0.3c-0.2,0.2-0.3,0.4-0.3,0.9c0,0.3,0.1,0.7,0.3,0.9
				c0.2,0.2,0.5,0.4,0.9,0.5c0.3,0.1,0.8,0.2,1.2,0.3c0.4,0.1,0.9,0.2,1.3,0.4c0.4,0.1,0.9,0.3,1.2,0.5c0.3,0.2,0.7,0.5,0.9,1
				c0.2,0.4,0.3,1,0.3,1.5c0,1-0.4,2-1.3,2.6c-0.9,0.8-2,1.1-3.4,1.1s-2.5-0.3-3.4-1c-0.9-0.7-1.3-1.6-1.3-2.8h3.2
				c0.1,1,0.5,1.4,1.5,1.4c0.4,0,0.8-0.1,1-0.3c0.2-0.2,0.3-0.5,0.3-0.9c0-0.3-0.1-0.7-0.3-0.9c-0.2-0.2-0.5-0.4-0.9-0.5
				c-0.3-0.1-0.8-0.2-1.2-0.3c-0.4-0.1-0.9-0.2-1.3-0.4c-0.4-0.1-0.9-0.3-1.2-0.5c-0.3-0.2-0.7-0.5-0.9-1s-0.3-1-0.3-1.5
				c0-1.1,0.4-2.1,1.3-2.7c0.9-0.7,2-1,3.3-1c1.3,0,2.4,0.3,3.2,0.9c0.8,0.5,1.2,1.5,1.3,2.8h-3.3c0-0.4-0.2-0.8-0.4-1
				C114.3,87.9,113.9,87.8,113.6,87.8z"/>
		</g>
	</g>
	<g class="st1">
		<g>
			<path class="st2" d="M57.6,115.2V113c0.3-0.3,0.8-0.7,1.3-1.2s1-0.9,1.3-1.1c0.3-0.2,0.7-0.7,1.1-1c0.4-0.4,0.8-0.8,1-1.1
				c0.5-0.8,0.9-1.4,0.9-2c0-1-0.4-1.5-1.3-1.5c-0.4,0-0.8,0.1-1,0.4s-0.3,0.8-0.3,1.3h-2.8c0-1.4,0.4-2.4,1.2-3.2s1.8-1.1,3.2-1.1
				c1.3,0,2.3,0.3,3,1.1c0.8,0.8,1.1,1.6,1.1,2.7c0,0.8-0.2,1.5-0.5,2.1c-0.2,0.3-0.4,0.7-0.5,0.9c-0.1,0.2-0.4,0.5-0.8,0.9
				c-0.3,0.3-0.7,0.7-0.8,0.8c-0.1,0.2-0.4,0.4-0.9,0.9c-0.4,0.4-0.8,0.7-0.9,0.8h4.6v2.4h-8.8V115.2z"/>
		</g>
		<g>
			<path class="st2" d="M70.2,103.2c0.7-0.3,1.4-0.4,2.3-0.4c0.9,0,1.6,0.1,2.3,0.4c0.7,0.3,1.2,0.8,1.5,1.3s0.7,1.2,0.9,2
				s0.2,1.5,0.2,2.5c0,1-0.1,1.7-0.2,2.5c-0.2,0.8-0.4,1.4-0.9,2c-0.3,0.5-0.9,1-1.5,1.3s-1.4,0.4-2.3,0.4c-0.9,0-1.6-0.1-2.3-0.4
				c-0.7-0.3-1.2-0.8-1.5-1.3c-0.3-0.5-0.7-1.2-0.9-2s-0.2-1.5-0.2-2.5c0-1,0.1-1.7,0.2-2.5c0.2-0.8,0.4-1.4,0.9-2
				S69.6,103.5,70.2,103.2z M73.5,105.7c-0.2-0.1-0.5-0.2-0.9-0.2c-0.3,0-0.7,0.1-0.9,0.2c-0.2,0.1-0.4,0.3-0.5,0.5
				c-0.1,0.2-0.2,0.4-0.3,0.8s-0.1,0.7-0.1,1s0,0.7,0,1.1c0,0.4,0,0.8,0,1.1c0,0.3,0.1,0.7,0.1,1s0.2,0.5,0.3,0.8
				c0.1,0.2,0.3,0.3,0.5,0.5c0.2,0.1,0.5,0.2,0.9,0.2c0.3,0,0.7-0.1,0.9-0.2c0.2-0.1,0.4-0.3,0.5-0.5c0.1-0.2,0.2-0.4,0.3-0.8
				c0.1-0.3,0.1-0.7,0.1-1c0-0.3,0-0.7,0-1.1c0-0.4,0-0.8,0-1.1c0-0.3-0.1-0.7-0.1-1c-0.1-0.3-0.2-0.5-0.3-0.8
				C73.9,106,73.7,105.9,73.5,105.7z"/>
		</g>
		<g>
			<path class="st2" d="M80.8,115.4v-9.6h-2.1v-2.7h5.2v12.4h-3.2V115.4z"/>
		</g>
		<g>
			<path class="st2" d="M86.8,105.7c0-1,0.4-1.7,1.2-2.5c0.8-0.7,1.8-1,3.3-1s2.5,0.3,3.3,1.1c0.8,0.7,1.1,1.5,1.1,2.5
				c0,1.2-0.5,2.1-1.6,2.7c1.3,0.7,2,1.6,2,3.2c0,1.2-0.4,2.2-1.3,2.9c-0.9,0.8-2,1.1-3.4,1.1c-1.3,0-2.5-0.3-3.4-1.1
				c-0.9-0.8-1.3-1.7-1.3-2.9c0-1.5,0.7-2.5,2-3.2C87.3,107.9,86.8,107,86.8,105.7z M92.9,111.5c0-0.5-0.1-0.9-0.4-1.2
				c-0.3-0.3-0.8-0.4-1.3-0.4s-1,0.1-1.3,0.4c-0.3,0.3-0.5,0.8-0.5,1.2s0.1,1,0.4,1.3c0.3,0.3,0.8,0.4,1.3,0.4s1-0.2,1.3-0.5
				C92.8,112.4,92.9,111.9,92.9,111.5z M92.8,106.2c0-0.4-0.1-0.8-0.4-1.1c-0.3-0.3-0.7-0.4-1.1-0.4c-0.4,0-0.8,0.1-1.1,0.4
				c-0.3,0.2-0.4,0.7-0.4,1.1c0,0.4,0.1,0.9,0.4,1.1c0.3,0.3,0.7,0.4,1.1,0.4c0.4,0,0.8-0.1,1.1-0.4C92.5,107,92.8,106.7,92.8,106.2
				z"/>
		</g>
	</g>
	<g>
		<g>
			<path class="st2" d="M48,127.5h2.8c0.8,0,1.3,0.1,1.7,0.5c0.4,0.4,0.7,0.8,0.7,1.5c0,0.8-0.5,1.3-1.5,1.6
				c0.5,0.1,0.9,0.3,1.2,0.7c0.3,0.4,0.4,0.8,0.4,1.2c0,0.5-0.3,1.1-0.7,1.5c-0.4,0.4-1.1,0.5-1.7,0.5H48
				C48,134.9,48,127.5,48,127.5z M49.2,128.5v2.1h1.5c0.4,0,0.7-0.1,0.9-0.3s0.4-0.4,0.4-0.8c0-0.4-0.1-0.7-0.4-0.8
				c-0.3-0.1-0.5-0.3-0.9-0.3C50.6,128.5,49.2,128.5,49.2,128.5z M49.2,134h1.6c0.4,0,0.8-0.1,0.9-0.3c0.3-0.3,0.4-0.5,0.4-0.8
				c0-0.3-0.1-0.7-0.4-0.9c-0.3-0.3-0.5-0.3-0.9-0.3h-1.6V134z"/>
			<path class="st2" d="M57.8,134.9h-1.2v-2.7l-2.4-4.7h1.3l1.7,3.6l1.7-3.6h1.3l-2.4,4.7v2.7H57.8z"/>
		</g>
		<path class="st2" d="M66.4,127.6h2.8c0.8,0,1.3,0.3,1.7,0.5c0.4,0.4,0.7,0.8,0.7,1.5c0,0.8-0.5,1.3-1.5,1.6
			c0.5,0.1,0.9,0.3,1.2,0.7c0.3,0.4,0.4,0.8,0.4,1.2c0,0.5-0.3,1.1-0.7,1.3c-0.4,0.4-1.1,0.5-1.7,0.5h-2.9V127.6z M67.6,134.1h1.6
			c0.4,0,0.8-0.1,0.9-0.3c0.3-0.3,0.4-0.5,0.4-0.8c0-0.4-0.1-0.7-0.4-0.9c-0.3-0.3-0.5-0.3-0.9-0.4h-1.6V134.1z M67.6,128.7v2.1H69
			c0.4,0,0.7-0.1,0.9-0.3c0.3-0.1,0.4-0.4,0.4-0.8c0-0.4-0.1-0.7-0.3-0.8c-0.3-0.1-0.5-0.3-0.9-0.3L67.6,128.7z"/>
		<path class="st2" d="M76.4,135.2c-1.1,0-2-0.4-2.7-1.1c-0.7-0.7-1.1-1.6-1.1-2.8c0-1.1,0.4-2,1.1-2.7c0.8-0.7,1.6-1.1,2.7-1.1
			c1.1,0,2,0.4,2.7,1.1c0.7,0.7,1.1,1.6,1.1,2.7c0,1.1-0.4,2-1.1,2.7C78.4,134.9,77.4,135.3,76.4,135.2z M76.4,134.1
			c0.8,0,1.3-0.3,1.9-0.7c0.5-0.5,0.7-1.2,0.7-2s-0.3-1.5-0.7-2c-0.5-0.5-1.1-0.8-1.9-0.8c-0.8,0-1.3,0.3-1.9,0.7
			c-0.5,0.5-0.7,1.1-0.7,2c0,0.8,0.3,1.5,0.7,2C75,133.9,75.7,134.1,76.4,134.1z"/>
		<path class="st2" d="M83.5,128.6c-0.4,0-0.7,0.1-0.9,0.3c-0.3,0.1-0.4,0.4-0.4,0.8c0,0.4,0.1,0.7,0.4,0.8c0.3,0.1,0.5,0.3,0.9,0.4
			s0.8,0.1,1.2,0.3c0.4,0.1,0.7,0.3,0.9,0.7c0.3,0.3,0.4,0.7,0.4,1.3c0,0.5-0.3,1.1-0.7,1.5c-0.5,0.4-1.1,0.7-1.9,0.7
			s-1.5-0.1-1.9-0.5c-0.5-0.4-0.7-0.9-0.7-1.5h1.3c0,0.3,0.1,0.5,0.4,0.8c0.3,0.1,0.5,0.3,0.9,0.3s0.8-0.1,0.9-0.3
			c0.1-0.1,0.4-0.4,0.4-0.8s0-0.5-0.3-0.7c-0.1-0.4-0.3-0.5-0.5-0.5c-0.3-0.1-0.5-0.1-0.8-0.3c-0.3-0.1-0.5-0.1-0.8-0.3
			c-0.3-0.1-0.5-0.3-0.8-0.4c-0.3-0.1-0.4-0.4-0.5-0.5c-0.1-0.3-0.3-0.5-0.3-0.9c0-0.7,0.3-1.2,0.7-1.6c0.5-0.4,1.1-0.5,1.9-0.5
			c0.8,0,1.3,0.1,1.7,0.5c0.4,0.4,0.7,0.8,0.7,1.5h-1.3c0-0.3-0.1-0.5-0.4-0.7C84.1,128.6,83.9,128.6,83.5,128.6z"/>
		<path class="st2" d="M86.8,128.8v-0.9H92v0.9h-2l-0.1,6.4h-1.2l0.1-6.4H86.8z"/>
		<path class="st2" d="M96,135.2c-1.1,0-2-0.4-2.7-1.1c-0.7-0.7-1.1-1.6-1.1-2.7c0-1.1,0.4-2,1.1-2.7c0.8-0.7,1.6-1.1,2.7-1.1
			c1.1,0,2,0.4,2.7,1.1c0.7,0.7,1.1,1.6,1.1,2.7c0,1.1-0.4,2-1.1,2.7C98,135,97.1,135.2,96,135.2z M96,134.2c0.8,0,1.3-0.3,1.9-0.7
			c0.5-0.5,0.7-1.2,0.7-2s-0.3-1.5-0.7-2c-0.4-0.5-1.1-0.8-1.9-0.8c-0.8,0-1.3,0.3-1.9,0.7c-0.5,0.5-0.7,1.1-0.7,2
			c0,0.9,0.3,1.5,0.7,2C94.7,133.9,95.4,134.2,96,134.2z"/>
		<path class="st2" d="M105.8,127.7h1.2l-0.1,7.5h-1.2l-3.6-5.6l-0.1,5.6h-1.2l0.1-7.5h1.2l3.6,5.6L105.8,127.7z"/>
	</g>
	<g class="st1">
		<path class="st2" d="M58.7,137.9v7.5h-1.2v-5.1l-2.3,5.1h-0.8l-2.3-5.1v5.1H51v-7.5h1.3l2.7,5.9l2.5-5.9H58.7z"/>
		<path class="st2" d="M65.4,145.4l-0.5-1.5h-3.1l-0.7,1.5h-1.3l2.7-7.5h1.5l2.7,7.5H65.4z M62,142.9h2.4l-1.2-3.5L62,142.9z"/>
		<path class="st2" d="M71.1,145.4c-1.1,0-1.9-0.4-2.7-1.1c-0.8-0.7-1.1-1.6-1.1-2.7s0.4-2,1.1-2.7c0.7-0.7,1.6-1.1,2.7-1.1
			c0.8,0,1.5,0.1,2.1,0.5c0.7,0.4,1.1,0.9,1.3,1.6h-1.5c-0.4-0.8-1.1-1.1-2-1.1c-0.8,0-1.3,0.3-1.9,0.8c-0.5,0.5-0.7,1.2-0.7,2
			s0.3,1.5,0.7,2c0.5,0.5,1.1,0.8,1.7,0.8c0.7,0,1.2-0.1,1.7-0.5c0.4-0.4,0.7-0.9,0.8-1.5h-2.8v-0.9h4.1v0.9
			c-0.1,0.9-0.5,1.6-1.2,2.3C73,145.1,72,145.4,71.1,145.4z"/>
		<path class="st2" d="M80.9,145.4l-0.5-1.5h-3.1l-0.5,1.5h-1.3l2.7-7.5h1.5l2.7,7.5H80.9z M77.6,142.9H80l-1.2-3.5L77.6,142.9z"/>
		<path class="st2" d="M88,137.9v0.9l-3.5,5.5H88v1.1h-4.9v-0.9l3.5-5.5h-3.5v-0.9H88V137.9z"/>
		<path class="st2" d="M89.3,145.4v-7.5h1.2v7.5H89.3z"/>
		<path class="st2" d="M97,137.9h1.2v7.5H97l-3.7-5.6v5.6h-1.2v-7.5h1.2l3.6,5.5v-5.5H97z"/>
		<path class="st2" d="M104,137.9v0.9H101v2.3h2.5v0.9H101v2.4h2.9v0.9h-4.1v-7.5H104z"/>
	</g>
	<g id="Path-7">
		<g>
			<rect x="35.5" y="122" class="st2" width="82.5" height="0.6"/>
		</g>
	</g>
</g>
</svg>
