<?xml version="1.0" encoding="utf-8"?>
<!-- Generator: Adobe Illustrator 22.1.0, SVG Export Plug-In . SVG Version: 6.00 Build 0)  -->
<svg version="1.1" id="Layer_1" xmlns="http://www.w3.org/2000/svg" xmlns:xlink="http://www.w3.org/1999/xlink" x="0px" y="0px"
	 viewBox="0 0 100 104" style="enable-background:new 0 0 100 104;" xml:space="preserve">
<style type="text/css">
	.st0{fill:#FFFFFF;}
</style>
<g>
	<g>
		<path class="st0" d="M37.5,7c-2,0-3.9,0.8-5.4,2.2c-1.4,1.4-2.2,3.3-2.2,5.4c0,2,0.8,3.9,2.2,5.4c1.4,1.4,3.3,2.2,5.4,2.2
			c2,0,3.9-0.8,5.4-2.2c3-3,3-7.8,0-10.7C41.5,7.8,39.6,7,37.5,7L37.5,7z"/>
		<path class="st0" d="M44.6,32.4c1.4,1.4,3.3,2.2,5.4,2.2c2,0,3.9-0.8,5.4-2.2c3-3,3-7.8,0-10.7c-1.4-1.4-3.3-2.2-5.4-2.2
			c-2,0-3.9,0.8-5.4,2.2c-1.4,1.4-2.2,3.3-2.2,5.4C42.4,29.1,43.2,31,44.6,32.4z"/>
		<path class="st0" d="M62.5,31.9c-2,0-3.9,0.8-5.4,2.2c-3,3-3,7.8,0,10.7c1.4,1.4,3.3,2.2,5.4,2.2c2,0,3.9-0.8,5.4-2.2
			c3-3,3-7.8,0-10.7C66.4,32.7,64.5,31.9,62.5,31.9L62.5,31.9z"/>
		<path class="st0" d="M74.9,44.4c-2,0-3.9,0.8-5.4,2.2c-1.4,1.4-2.2,3.3-2.2,5.4c0,2,0.8,3.9,2.2,5.4c1.4,1.4,3.3,2.2,5.4,2.2
			c2,0,3.9-0.8,5.4-2.2c1.4-1.4,2.2-3.3,2.2-5.4c0-2-0.8-3.9-2.2-5.4C78.9,45.2,77,44.4,74.9,44.4L74.9,44.4z"/>
		<path class="st0" d="M30.4,21.7c-1.4-1.4-3.3-2.2-5.4-2.2c-2,0-3.9,0.8-5.4,2.2c-3,3-3,7.8,0,10.7c1.4,1.4,3.3,2.2,5.4,2.2
			c2,0,3.9-0.8,5.4-2.2c1.4-1.4,2.2-3.3,2.2-5.4S31.9,23.1,30.4,21.7z"/>
		<path class="st0" d="M42.9,34.2c-1.4-1.4-3.3-2.2-5.4-2.2c-2,0-3.9,0.8-5.4,2.2c-1.4,1.4-2.2,3.3-2.2,5.4c0,2,0.8,3.9,2.2,5.4
			c1.4,1.4,3.3,2.2,5.4,2.2c2,0,3.9-0.8,5.4-2.2C45.9,41.9,45.9,37.1,42.9,34.2z"/>
		<path class="st0" d="M55.4,57.4c3-3,3-7.8,0-10.7c-1.4-1.4-3.3-2.2-5.4-2.2c-2,0-3.9,0.8-5.4,2.2c-1.4,1.4-2.2,3.3-2.2,5.4
			c0,2,0.8,3.9,2.2,5.4c1.4,1.4,3.3,2.2,5.4,2.2C52,59.6,53.9,58.8,55.4,57.4z"/>
		<path class="st0" d="M54.9,64.5c0,2,0.8,3.9,2.2,5.4c1.4,1.4,3.3,2.2,5.4,2.2c2,0,3.9-0.8,5.4-2.2c1.4-1.4,2.2-3.3,2.2-5.4
			c0-2-0.8-3.9-2.2-5.4c-1.4-1.4-3.3-2.2-5.4-2.2c-2,0-3.9,0.8-5.4,2.2C55.7,60.5,54.9,62.4,54.9,64.5z"/>
		<path class="st0" d="M37.5,56.9c-2,0-3.9,0.8-5.4,2.2c-1.4,1.4-2.2,3.3-2.2,5.4c0,2,0.8,3.9,2.2,5.4c1.4,1.4,3.3,2.2,5.4,2.2
			c2,0,3.9-0.8,5.4-2.2c3-3,3-7.8,0-10.7C41.5,57.7,39.6,56.9,37.5,56.9L37.5,56.9z"/>
		<path class="st0" d="M44.6,82.3c1.4,1.4,3.3,2.2,5.4,2.2c2,0,3.9-0.8,5.4-2.2c1.4-1.4,2.2-3.3,2.2-5.4c0-2-0.8-3.9-2.2-5.4
			c-1.4-1.4-3.3-2.2-5.4-2.2c-2,0-3.9,0.8-5.4,2.2C41.7,74.5,41.7,79.3,44.6,82.3z"/>
		<path class="st0" d="M30.4,71.6c-1.4-1.4-3.3-2.2-5.4-2.2c-2,0-3.9,0.8-5.4,2.2c-1.4,1.4-2.2,3.3-2.2,5.4c0,2,0.8,3.9,2.2,5.4
			c1.4,1.4,3.3,2.2,5.4,2.2c2,0,3.9-0.8,5.4-2.2C33.4,79.3,33.4,74.5,30.4,71.6z"/>
		<path class="st0" d="M32.2,84c-3,3-3,7.8,0,10.8c1.4,1.4,3.3,2.2,5.4,2.2c2,0,3.9-0.8,5.4-2.2c3-3,3-7.8,0-10.7
			c-1.4-1.4-3.3-2.2-5.4-2.2C35.5,81.8,33.6,82.6,32.2,84z"/>
	</g>
</g>
</svg>
